<svg xmlns="http://www.w3.org/2000/svg" shape-rendering="geometricPrecision" text-rendering="geometricPrecision" image-rendering="optimizeQuality" fill-rule="evenodd" clip-rule="evenodd" viewBox="0 0 481 512.43"><path fill="#D0401B" fill-rule="nonzero" d="M33.59 98.4c-6.62-3.31-9.31-11.36-6-17.99 3.32-6.62 11.37-9.3 17.99-5.99 64.23 32.28 128.82 49.3 193.77 50.02 64.95.73 130.53-14.81 196.75-47.62 6.66-3.28 14.71-.55 17.99 6.1 3.28 6.65.55 14.7-6.1 17.98-70.04 34.71-139.66 51.14-208.85 50.37-69.18-.78-137.69-18.76-205.55-52.87z"/><path fill="#F60" fill-rule="nonzero" d="M401.07 512.43H66.76c-21.06 0-47.88-20.88-35.74-43.66 35.85-67.22 78.04-139.37 110.54-207.35 7.87-14.79 15.99-30.06 35.25-30.06h122.05c18.49 0 28.69 16.8 35.95 31.44l102.21 206.34c11.36 22.93-15.22 43.29-35.95 43.29z"/><path fill="#D0401B" d="M66.76 499.01h334.31c13.18 0 29.79-12.15 23.95-23.95L322.81 268.73c-5.84-11.8-13.03-23.95-23.95-23.95H176.81c-11.55 0-17.77 12.35-23.95 23.95L42.81 475.06c-6.18 11.59 10.78 23.95 23.95 23.95z"/><path fill="#F5C800" d="M53.66 66.39V313.1H24.89V66.39C12.88 60.92 4.53 48.82 4.53 34.75 4.53 15.56 20.08 0 39.28 0c19.19 0 34.75 15.56 34.75 34.75 0 14.07-8.35 26.17-20.37 31.64z"/><path fill="#E37E00" d="M78.55 328.69v21.57c0 1.52-1.28 2.8-2.8 2.8H3.66c-1.99 0-3.66-1.65-3.66-3.66v-20.71c0-27.35 78.55-27.34 78.55 0z"/><path fill="#FFDD61" d="M39.28 16.04c10.33 0 18.71 8.38 18.71 18.71s-8.38 18.71-18.71 18.71c-10.34 0-18.71-8.38-18.71-18.71s8.37-18.71 18.71-18.71z"/><path fill="#F5C800" d="M456.11 66.39V313.1h-28.77V66.39c-12.01-5.47-20.37-17.57-20.37-31.64C406.97 15.56 422.53 0 441.73 0c19.19 0 34.75 15.56 34.75 34.75 0 14.07-8.35 26.17-20.37 31.64z"/><path fill="#E37E00" d="M481 328.69v21.57c0 1.52-1.28 2.8-2.8 2.8h-72.09c-1.99 0-3.66-1.65-3.66-3.66v-20.71c0-27.35 78.55-27.34 78.55 0z"/><path fill="#FFDD61" d="M441.73 16.04c10.33 0 18.7 8.38 18.7 18.71s-8.37 18.71-18.7 18.71c-10.34 0-18.71-8.38-18.71-18.71s8.37-18.71 18.71-18.71z"/></svg>