<svg xmlns="http://www.w3.org/2000/svg" xmlns:xlink="http://www.w3.org/1999/xlink" width="300" zoomAndPan="magnify" viewBox="0 0 224.87999 112.499997" height="150" preserveAspectRatio="xMidYMid meet" version="1.0"><defs><g/></defs><g fill="#000000" fill-opacity="1"><g transform="translate(20.263937, 69.60937)"><g><path d="M 16.546875 -19.03125 C 14.890625 -19.03125 13.460938 -18.414062 12.265625 -17.1875 C 11.078125 -15.96875 10.484375 -14.5 10.484375 -12.78125 C 10.484375 -11.019531 11.078125 -9.523438 12.265625 -8.296875 C 13.460938 -7.078125 14.890625 -6.46875 16.546875 -6.46875 C 17.347656 -6.46875 18.101562 -6.566406 18.8125 -6.765625 C 19.519531 -6.960938 20.039062 -7.160156 20.375 -7.359375 L 20.828125 -7.65625 L 23.8125 -1.546875 C 23.570312 -1.378906 23.242188 -1.171875 22.828125 -0.921875 C 22.421875 -0.671875 21.476562 -0.332031 20 0.09375 C 18.53125 0.53125 16.953125 0.75 15.265625 0.75 C 11.515625 0.75 8.222656 -0.566406 5.390625 -3.203125 C 2.554688 -5.835938 1.140625 -8.992188 1.140625 -12.671875 C 1.140625 -16.378906 2.554688 -19.566406 5.390625 -22.234375 C 8.222656 -24.910156 11.515625 -26.25 15.265625 -26.25 C 16.953125 -26.25 18.503906 -26.046875 19.921875 -25.640625 C 21.347656 -25.242188 22.363281 -24.847656 22.96875 -24.453125 L 23.8125 -23.859375 L 20.828125 -17.84375 C 19.734375 -18.632812 18.304688 -19.03125 16.546875 -19.03125 Z M 16.546875 -19.03125 "/></g></g></g><g fill="#000000" fill-opacity="1"><g transform="translate(39.994136, 69.60937)"><g><path d="M 4.71875 -3.15625 C 2.332031 -5.757812 1.140625 -8.945312 1.140625 -12.71875 C 1.140625 -16.5 2.332031 -19.695312 4.71875 -22.3125 C 7.101562 -24.9375 10.132812 -26.25 13.8125 -26.25 C 17.195312 -26.25 19.984375 -25.1875 22.171875 -23.0625 L 22.171875 -25.5 L 30.96875 -25.5 L 30.96875 0 L 22.265625 0 L 22.265625 -2.875 L 22.171875 -2.875 C 19.984375 -0.457031 17.195312 0.75 13.8125 0.75 C 10.132812 0.75 7.101562 -0.550781 4.71875 -3.15625 Z M 12.203125 -17.046875 C 11.054688 -15.921875 10.484375 -14.476562 10.484375 -12.71875 C 10.484375 -10.96875 11.03125 -9.535156 12.125 -8.421875 C 13.21875 -7.316406 14.660156 -6.765625 16.453125 -6.765625 C 18.171875 -6.765625 19.582031 -7.328125 20.6875 -8.453125 C 21.800781 -9.578125 22.359375 -11 22.359375 -12.71875 C 22.359375 -14.476562 21.785156 -15.921875 20.640625 -17.046875 C 19.503906 -18.171875 18.109375 -18.734375 16.453125 -18.734375 C 14.765625 -18.734375 13.347656 -18.171875 12.203125 -17.046875 Z M 12.203125 -17.046875 "/></g></g></g><g fill="#000000" fill-opacity="1"><g transform="translate(69.266762, 69.60937)"><g><path d="M 2.984375 0 L 2.984375 -42.75 L 11.78125 -42.75 L 11.78125 0 Z M 2.984375 0 "/></g></g></g><g fill="#38b6ff" fill-opacity="1"><g transform="translate(79.3591, 69.60937)"><g><path d="M 16.546875 -19.03125 C 14.890625 -19.03125 13.460938 -18.414062 12.265625 -17.1875 C 11.078125 -15.96875 10.484375 -14.5 10.484375 -12.78125 C 10.484375 -11.019531 11.078125 -9.523438 12.265625 -8.296875 C 13.460938 -7.078125 14.890625 -6.46875 16.546875 -6.46875 C 17.347656 -6.46875 18.101562 -6.566406 18.8125 -6.765625 C 19.519531 -6.960938 20.039062 -7.160156 20.375 -7.359375 L 20.828125 -7.65625 L 23.8125 -1.546875 C 23.570312 -1.378906 23.242188 -1.171875 22.828125 -0.921875 C 22.421875 -0.671875 21.476562 -0.332031 20 0.09375 C 18.53125 0.53125 16.953125 0.75 15.265625 0.75 C 11.515625 0.75 8.222656 -0.566406 5.390625 -3.203125 C 2.554688 -5.835938 1.140625 -8.992188 1.140625 -12.671875 C 1.140625 -16.378906 2.554688 -19.566406 5.390625 -22.234375 C 8.222656 -24.910156 11.515625 -26.25 15.265625 -26.25 C 16.953125 -26.25 18.503906 -26.046875 19.921875 -25.640625 C 21.347656 -25.242188 22.363281 -24.847656 22.96875 -24.453125 L 23.8125 -23.859375 L 20.828125 -17.84375 C 19.734375 -18.632812 18.304688 -19.03125 16.546875 -19.03125 Z M 16.546875 -19.03125 "/></g></g></g><g fill="#ffbd59" fill-opacity="1"><g transform="translate(99.094239, 69.60937)"><g><path d="M 16.546875 -19.03125 C 14.890625 -19.03125 13.460938 -18.414062 12.265625 -17.1875 C 11.078125 -15.96875 10.484375 -14.5 10.484375 -12.78125 C 10.484375 -11.019531 11.078125 -9.523438 12.265625 -8.296875 C 13.460938 -7.078125 14.890625 -6.46875 16.546875 -6.46875 C 17.347656 -6.46875 18.101562 -6.566406 18.8125 -6.765625 C 19.519531 -6.960938 20.039062 -7.160156 20.375 -7.359375 L 20.828125 -7.65625 L 23.8125 -1.546875 C 23.570312 -1.378906 23.242188 -1.171875 22.828125 -0.921875 C 22.421875 -0.671875 21.476562 -0.332031 20 0.09375 C 18.53125 0.53125 16.953125 0.75 15.265625 0.75 C 11.515625 0.75 8.222656 -0.566406 5.390625 -3.203125 C 2.554688 -5.835938 1.140625 -8.992188 1.140625 -12.671875 C 1.140625 -16.378906 2.554688 -19.566406 5.390625 -22.234375 C 8.222656 -24.910156 11.515625 -26.25 15.265625 -26.25 C 16.953125 -26.25 18.503906 -26.046875 19.921875 -25.640625 C 21.347656 -25.242188 22.363281 -24.847656 22.96875 -24.453125 L 23.8125 -23.859375 L 20.828125 -17.84375 C 19.734375 -18.632812 18.304688 -19.03125 16.546875 -19.03125 Z M 16.546875 -19.03125 "/></g></g></g><g fill="#000000" fill-opacity="1"><g transform="translate(118.829377, 69.60937)"><g><path d="M 8.640625 -10.640625 C 10.234375 -10.640625 11.582031 -10.082031 12.6875 -8.96875 C 13.800781 -7.863281 14.359375 -6.515625 14.359375 -4.921875 C 14.359375 -3.359375 13.800781 -2.019531 12.6875 -0.90625 C 11.582031 0.195312 10.234375 0.75 8.640625 0.75 C 7.085938 0.75 5.753906 0.195312 4.640625 -0.90625 C 3.535156 -2.019531 2.984375 -3.359375 2.984375 -4.921875 C 2.984375 -6.515625 3.535156 -7.863281 4.640625 -8.96875 C 5.753906 -10.082031 7.085938 -10.640625 8.640625 -10.640625 Z M 8.640625 -10.640625 "/></g></g></g><g fill="#000000" fill-opacity="1"><g transform="translate(131.502161, 69.60937)"><g><path d="M 2.984375 0 L 2.984375 -25.5 L 11.78125 -25.5 L 11.78125 -22.8125 L 11.875 -22.8125 C 14.164062 -25.101562 16.601562 -26.25 19.1875 -26.25 C 20.445312 -26.25 21.695312 -26.082031 22.9375 -25.75 C 24.175781 -25.414062 25.367188 -24.898438 26.515625 -24.203125 C 27.660156 -23.503906 28.585938 -22.515625 29.296875 -21.234375 C 30.015625 -19.960938 30.375 -18.484375 30.375 -16.796875 L 30.375 0 L 21.578125 0 L 21.578125 -14.40625 C 21.578125 -15.738281 21.148438 -16.898438 20.296875 -17.890625 C 19.453125 -18.890625 18.351562 -19.390625 17 -19.390625 C 15.675781 -19.390625 14.472656 -18.875 13.390625 -17.84375 C 12.316406 -16.8125 11.78125 -15.664062 11.78125 -14.40625 L 11.78125 0 Z M 2.984375 0 "/></g></g></g><g fill="#000000" fill-opacity="1"><g transform="translate(159.681386, 69.60937)"><g><path d="M 28.78125 -11.53125 L 10.28125 -11.53125 C 10.28125 -9.738281 10.859375 -8.410156 12.015625 -7.546875 C 13.179688 -6.691406 14.445312 -6.265625 15.8125 -6.265625 C 17.226562 -6.265625 18.347656 -6.453125 19.171875 -6.828125 C 20.003906 -7.210938 20.953125 -7.96875 22.015625 -9.09375 L 28.375 -5.921875 C 25.726562 -1.472656 21.320312 0.75 15.15625 0.75 C 11.3125 0.75 8.015625 -0.566406 5.265625 -3.203125 C 2.515625 -5.835938 1.140625 -9.007812 1.140625 -12.71875 C 1.140625 -16.4375 2.515625 -19.617188 5.265625 -22.265625 C 8.015625 -24.921875 11.3125 -26.25 15.15625 -26.25 C 19.195312 -26.25 22.484375 -25.078125 25.015625 -22.734375 C 27.554688 -20.398438 28.828125 -17.0625 28.828125 -12.71875 C 28.828125 -12.125 28.8125 -11.726562 28.78125 -11.53125 Z M 10.53125 -16.40625 L 20.234375 -16.40625 C 20.035156 -17.726562 19.507812 -18.742188 18.65625 -19.453125 C 17.8125 -20.171875 16.726562 -20.53125 15.40625 -20.53125 C 13.945312 -20.53125 12.785156 -20.144531 11.921875 -19.375 C 11.066406 -18.613281 10.601562 -17.625 10.53125 -16.40625 Z M 10.53125 -16.40625 "/></g></g></g><g fill="#000000" fill-opacity="1"><g transform="translate(184.978003, 69.60937)"><g><path d="M 4.46875 -25.5 L 4.46875 -34.984375 L 13.265625 -34.984375 L 13.265625 -25.5 L 18.640625 -25.5 L 18.640625 -18.78125 L 13.265625 -18.78125 L 13.265625 -10.6875 C 13.265625 -8.332031 13.929688 -7.15625 15.265625 -7.15625 C 15.585938 -7.15625 15.929688 -7.222656 16.296875 -7.359375 C 16.660156 -7.492188 16.941406 -7.625 17.140625 -7.75 L 17.453125 -7.953125 L 19.625 -0.84375 C 17.738281 0.21875 15.585938 0.75 13.171875 0.75 C 11.515625 0.75 10.085938 0.457031 8.890625 -0.125 C 7.703125 -0.707031 6.800781 -1.484375 6.1875 -2.453125 C 5.570312 -3.429688 5.128906 -4.457031 4.859375 -5.53125 C 4.597656 -6.613281 4.46875 -7.769531 4.46875 -9 L 4.46875 -18.78125 L 0.796875 -18.78125 L 0.796875 -25.5 Z M 4.46875 -25.5 "/></g></g></g></svg>